<?xml version="1.0" standalone="no"?><!DOCTYPE svg PUBLIC "-//W3C//DTD SVG 1.1//EN" "http://www.w3.org/Graphics/SVG/1.1/DTD/svg11.dtd"><svg t="1717660449665" class="icon" viewBox="0 0 1024 1024" version="1.1" xmlns="http://www.w3.org/2000/svg" p-id="13307" xmlns:xlink="http://www.w3.org/1999/xlink" width="200" height="200"><path d="M512 93.090909c231.354182 0 418.909091 187.554909 418.909091 418.909091s-187.554909 418.909091-418.909091 418.909091S93.090909 743.354182 93.090909 512 280.645818 93.090909 512 93.090909z m0 186.181818a34.909091 34.909091 0 0 0-34.909091 34.909091v162.909091h-162.909091a34.909091 34.909091 0 0 0-34.746182 31.557818L279.272727 512a34.909091 34.909091 0 0 0 34.909091 34.909091h162.909091v162.909091a34.909091 34.909091 0 0 0 31.557818 34.746182L512 744.727273a34.909091 34.909091 0 0 0 34.909091-34.909091v-162.909091h162.909091a34.909091 34.909091 0 0 0 34.746182-31.557818L744.727273 512a34.909091 34.909091 0 0 0-34.909091-34.909091h-162.909091v-162.909091a34.909091 34.909091 0 0 0-31.557818-34.746182z" fill="#333333" p-id="13308"></path></svg>